<?xml version="1.0" encoding="iso-8859-1"?><!DOCTYPE svg PUBLIC "-//W3C//DTD SVG 1.1//EN" "http://www.w3.org/Graphics/SVG/1.1/DTD/svg11.dtd"><svg viewBox="0 0 512 512" xmlns="http://www.w3.org/2000/svg" xmlns:xlink="http://www.w3.org/1999/xlink"><style>:root>svg{display:none}:root>svg:target{display:block}</style><svg viewBox="0 0 512 512" id="facebook" xmlns="http://www.w3.org/2000/svg"><path fill="#fff" d="M75 512h167V330h-60v-60h60v-75c0-41.355 33.645-75 75-75h75v60h-60c-16.543 0-30 13.457-30 30v60h87.293l-10 60H302v182h135c41.355 0 75-33.645 75-75V75c0-41.355-33.645-75-75-75H75C33.645 0 0 33.645 0 75v362c0 41.355 33.645 75 75 75zM30 75c0-24.813 20.188-45 45-45h362c24.813 0 45 20.188 45 45v362c0 24.813-20.188 45-45 45H332V360h72.707l20-120H332v-30h90V90H317c-57.898 0-105 47.102-105 105v45h-60v120h60v122H75c-24.813 0-45-20.188-45-45zm0 0"/></svg><svg fill="#fff" viewBox="0 0 169.063 169.063" id="instagram-logo" xmlns="http://www.w3.org/2000/svg"><path d="M122.406 0H46.654C20.929 0 0 20.93 0 46.655v75.752c0 25.726 20.929 46.655 46.654 46.655h75.752c25.727 0 46.656-20.93 46.656-46.655V46.655C169.063 20.93 148.133 0 122.406 0zm31.657 122.407c0 17.455-14.201 31.655-31.656 31.655H46.654C29.2 154.063 15 139.862 15 122.407V46.655C15 29.201 29.2 15 46.654 15h75.752c17.455 0 31.656 14.201 31.656 31.655v75.752z"/><path d="M84.531 40.97c-24.021 0-43.563 19.542-43.563 43.563 0 24.02 19.542 43.561 43.563 43.561s43.563-19.541 43.563-43.561c0-24.021-19.542-43.563-43.563-43.563zm0 72.123c-15.749 0-28.563-12.812-28.563-28.561 0-15.75 12.813-28.563 28.563-28.563s28.563 12.813 28.563 28.563c0 15.749-12.814 28.561-28.563 28.561zM129.921 28.251c-2.89 0-5.729 1.17-7.77 3.22a11.053 11.053 0 00-3.23 7.78c0 2.891 1.18 5.73 3.23 7.78 2.04 2.04 4.88 3.22 7.77 3.22 2.9 0 5.73-1.18 7.78-3.22 2.05-2.05 3.22-4.89 3.22-7.78 0-2.9-1.17-5.74-3.22-7.78-2.04-2.05-4.88-3.22-7.78-3.22z"/></svg><svg viewBox="0 0 425.963 425.963" id="location-pin" xmlns="http://www.w3.org/2000/svg"><path fill="#fff" d="M213.285 0h-.608C139.114 0 79.268 59.826 79.268 133.361c0 48.202 21.952 111.817 65.246 189.081 32.098 57.281 64.646 101.152 64.972 101.588a4.8 4.8 0 003.847 1.934c.043 0 .087 0 .13-.002a4.805 4.805 0 003.868-2.143c.321-.486 32.637-49.287 64.517-108.976 43.03-80.563 64.848-141.624 64.848-181.482C346.693 59.825 286.846 0 213.285 0zm61.58 136.62c0 34.124-27.761 61.884-61.885 61.884-34.123 0-61.884-27.761-61.884-61.884s27.761-61.884 61.884-61.884c34.124 0 61.885 27.761 61.885 61.884z"/></svg><svg viewBox="0 0 511.999 511.999" id="telephone" xmlns="http://www.w3.org/2000/svg"><path fill="#fff" d="M498.827 377.633l-63.649-63.649c-17.548-17.547-46.102-17.547-63.649 0l-28.931 28.931c-13.294 13.294-34.926 13.29-48.215.005l-125.4-125.507c-13.325-13.325-13.327-34.892 0-48.219l28.931-28.931c17.471-17.47 17.715-45.935-.017-63.665l-63.632-63.432C116.717-4.381 88.164-4.381 70.663 13.12L47.471 36.111c-63.28 63.279-63.28 166.242-.003 229.519L246.16 464.426c63.428 63.429 166.088 63.434 229.521 0l23.146-23.145c17.548-17.548 17.548-46.1 0-63.648zM91.833 34.382c5.849-5.849 15.365-5.85 21.233.016l63.632 63.432c5.863 5.863 5.863 15.352 0 21.216l-10.609 10.608-84.81-84.81 10.554-10.462zM267.38 443.213L68.687 244.415c-48.958-48.958-51.649-125.833-8.276-178.006l84.564 84.564c-22.22 25.189-21.294 63.572 2.787 87.653l125.396 125.501.004.004c24.055 24.056 62.436 25.042 87.656 2.792l84.566 84.566c-52.007 43.298-128.709 41.019-178.004-8.276zm210.232-23.148l-10.609 10.609-84.865-84.866 10.607-10.608c5.85-5.849 15.367-5.85 21.217 0l63.649 63.649c5.85 5.85 5.85 15.368.001 21.216z"/></svg></svg>